<?xml version="1.0" standalone="no"?>
<!DOCTYPE svg PUBLIC "-//W3C//DTD SVG 20010904//EN"
 "http://www.w3.org/TR/2001/REC-SVG-20010904/DTD/svg10.dtd">
<svg version="1.0" xmlns="http://www.w3.org/2000/svg"
 width="4364.000000pt" height="4364.000000pt" viewBox="0 0 4364.000000 4364.000000"
 preserveAspectRatio="xMidYMid meet">
<metadata>
Created by potrace 1.11, written by Peter Selinger 2001-2013
</metadata>
<g transform="translate(0.000000,4364.000000) scale(0.100000,-0.100000)"
fill="#000000" stroke="none">
<path d="M25120 31367 c-3 -2 -99 -8 -215 -12 -115 -4 -212 -8 -215 -10 -3 -1
-54 -6 -115 -10 -622 -38 -1445 -171 -2155 -350 -1347 -338 -2736 -950 -3961
-1745 -357 -233 -464 -288 -648 -338 -85 -23 -115 -26 -266 -26 -192 0 -227 6
-550 104 -400 121 -761 172 -1194 169 -325 -2 -584 -31 -892 -100 l-136 -30
-374 190 c-1086 552 -1920 909 -2813 1206 -993 330 -1827 505 -2646 554 -214
13 -688 5 -870 -14 -358 -38 -555 -83 -970 -220 -157 -51 -322 -103 -368 -115
-208 -52 -415 -64 -632 -35 -282 38 -562 -34 -884 -225 -150 -89 -188 -130
-253 -269 -146 -309 -175 -363 -250 -463 -96 -127 -258 -292 -423 -428 -69
-58 -154 -134 -189 -170 -290 -297 -463 -726 -510 -1260 -12 -129 -6 -488 9
-630 27 -247 -28 -469 -158 -640 -27 -36 -61 -75 -74 -88 l-25 -23 -129 18
c-188 25 -714 25 -869 0 -61 -10 -124 -21 -140 -26 l-30 -8 35 -6 c19 -4 114
-13 210 -22 176 -17 592 -67 685 -84 36 -6 -15 -9 -190 -10 -132 -1 -274 -4
-315 -6 -41 -2 -136 -6 -210 -10 -146 -6 -157 -7 -455 -31 -296 -24 -306 -30
-45 -32 236 -1 400 -11 605 -37 145 -19 376 -57 372 -61 -2 -2 -41 -6 -88 -9
-417 -25 -553 -39 -809 -80 -626 -102 -1173 -304 -1612 -595 -121 -81 -291
-210 -284 -217 2 -2 64 30 137 72 746 426 1517 638 2319 637 196 0 493 -18
518 -32 8 -4 -21 -10 -64 -13 -139 -12 -424 -56 -624 -97 -295 -61 -414 -97
-230 -70 112 16 421 49 510 54 259 16 308 17 397 10 l98 -7 -90 -17 c-213 -42
-465 -116 -715 -210 -377 -143 -1137 -495 -1440 -668 -215 -122 -457 -291
-575 -398 -45 -41 -37 -37 50 28 578 434 1398 770 2320 952 226 44 315 59 320
54 3 -2 -21 -12 -53 -22 -98 -31 -480 -171 -637 -234 -261 -104 -700 -300
-692 -308 2 -2 84 24 183 57 556 186 1023 306 1399 358 72 10 131 18 132 16 2
-1 -75 -34 -170 -75 -205 -87 -510 -235 -587 -286 -30 -19 -46 -32 -35 -28 11
4 72 26 135 50 141 54 311 106 584 179 l210 56 25 -29 c14 -16 53 -49 86 -74
79 -60 85 -68 139 -173 131 -256 424 -424 860 -492 155 -24 551 -24 726 0 189
27 339 63 501 122 81 29 171 58 200 64 30 6 171 13 314 15 181 3 306 11 410
25 83 11 191 22 240 26 l90 6 42 -63 c80 -122 141 -225 263 -450 68 -125 126
-226 128 -223 7 7 -65 226 -145 445 -42 113 -86 236 -99 274 l-24 69 35 -39
c96 -107 243 -298 416 -541 236 -330 264 -366 254 -333 -21 68 -144 284 -322
566 -163 256 -200 318 -187 313 14 -6 158 -160 339 -364 185 -207 150 -169
430 -490 322 -369 447 -507 430 -475 -5 8 -43 68 -86 133 -99 149 -213 299
-459 607 -291 363 -443 570 -526 715 l-28 50 74 -65 c82 -72 419 -405 521
-515 207 -224 657 -749 748 -874 10 -13 23 -22 29 -20 23 8 -194 312 -352 494
-74 85 -104 118 -312 340 -232 248 -250 269 -322 353 -75 87 -183 224 -222
282 -20 29 -20 32 -4 19 201 -162 341 -281 534 -454 284 -254 410 -374 744
-710 159 -159 307 -314 328 -342 56 -73 78 -69 31 5 -152 241 -424 548 -789
892 -49 47 -161 153 -249 235 -221 208 -487 477 -455 460 40 -22 210 -144 306
-221 261 -209 391 -331 916 -853 175 -173 318 -312 318 -307 0 26 -246 290
-646 696 -370 376 -399 406 -558 595 -115 137 -151 185 -139 185 17 0 202
-118 295 -188 284 -214 813 -715 1096 -1040 35 -39 68 -72 73 -72 14 0 -45
112 -116 220 -146 221 -326 401 -705 706 -357 287 -625 523 -610 538 9 9 179
-30 260 -59 159 -58 337 -161 498 -288 219 -172 518 -443 797 -722 222 -221
283 -285 450 -469 50 -55 115 -127 145 -160 363 -400 513 -532 1143 -1000 191
-142 346 -260 345 -262 -2 -1 -60 6 -128 16 -207 31 -333 39 -595 35 -343 -5
-558 -37 -810 -120 -157 -51 -253 -99 -411 -201 -198 -130 -257 -144 -479
-117 -258 31 -399 -3 -589 -142 l-79 -59 63 -17 c42 -11 93 -38 159 -83 53
-36 116 -73 138 -82 l42 -16 -48 -38 c-179 -142 -297 -384 -316 -652 l-7 -98
56 26 c92 42 222 64 414 71 94 3 172 3 172 0 0 -3 -20 -17 -43 -30 -137 -81
-224 -275 -255 -570 l-8 -77 28 30 c15 17 49 41 75 53 44 19 72 22 308 28 329
9 363 17 702 173 175 80 311 132 321 122 1 -2 -5 -44 -15 -92 -11 -58 -17
-137 -18 -229 0 -123 3 -146 22 -187 l22 -47 48 22 c46 21 58 22 281 19 284
-4 296 -1 522 108 256 123 575 221 1014 310 244 50 287 71 456 220 85 76 148
122 198 147 40 20 75 34 78 31 2 -3 -45 -185 -105 -405 -61 -220 -119 -446
-130 -502 -25 -127 -44 -166 -99 -208 -74 -56 -187 -80 -407 -88 -395 -14
-410 -16 -560 -46 -243 -50 -1010 -245 -1070 -273 -79 -36 -126 -77 -237 -206
-110 -128 -173 -240 -184 -327 l-6 -52 51 14 c135 35 264 27 321 -21 45 -38
47 -60 8 -91 -132 -109 -213 -208 -273 -335 -57 -120 -76 -275 -46 -384 7 -26
7 -25 54 29 92 107 165 125 543 129 l221 3 -44 -49 c-57 -64 -127 -208 -152
-316 -20 -85 -41 -264 -41 -352 l0 -48 53 34 c73 47 185 102 398 196 101 45
222 102 269 128 47 25 87 45 89 45 3 -1 17 -35 32 -77 73 -201 164 -337 292
-441 39 -31 50 -36 57 -24 20 32 130 149 195 206 92 81 165 136 365 273 319
220 368 261 706 587 242 234 325 305 484 412 251 170 506 297 910 455 284 111
381 152 515 219 192 95 240 129 689 486 277 219 515 397 626 465 212 132 292
157 670 211 602 87 1142 189 1590 301 466 116 648 144 900 139 174 -3 276 -17
600 -80 437 -86 610 -105 1125 -121 110 -3 306 -9 435 -14 129 -4 312 -6 405
-4 236 5 483 14 525 19 19 2 82 7 140 10 58 3 130 8 160 10 507 42 1177 64
1385 44 508 -47 986 -188 1440 -423 265 -138 566 -325 725 -453 192 -154 492
-489 662 -741 l50 -74 -23 -16 c-45 -31 -113 -107 -156 -175 -54 -82 -77 -134
-159 -350 -91 -240 -133 -321 -221 -419 -144 -161 -263 -365 -303 -523 -22
-85 -30 -225 -16 -307 l7 -47 52 33 c209 133 488 255 711 312 33 8 70 18 81
21 13 4 -1 -16 -37 -54 -118 -125 -245 -360 -351 -648 -80 -218 -78 -208 -23
-157 107 98 234 164 542 282 220 83 376 155 447 206 l50 36 -7 -29 c-3 -15 -9
-93 -13 -173 -6 -163 9 -272 52 -367 27 -59 74 -123 92 -123 6 0 22 19 36 42
49 84 162 180 282 240 91 46 238 96 450 153 116 31 231 62 258 70 43 13 47 12
47 -3 4 -173 50 -315 116 -358 29 -20 37 -14 54 41 51 161 152 258 322 309
171 52 257 134 397 383 55 99 127 173 271 283 218 165 394 267 940 545 867
441 1027 543 1158 737 57 84 116 141 188 180 242 131 674 143 1223 33 827
-166 1387 -496 1724 -1015 187 -289 307 -655 346 -1060 42 -430 33 -697 -30
-866 -53 -142 -386 -581 -590 -779 -129 -126 -189 -175 -309 -257 -259 -178
-426 -248 -1055 -443 -967 -299 -1559 -402 -2625 -456 -368 -18 -1321 -15
-1610 6 -25 2 -99 6 -165 9 -193 11 -334 20 -540 36 -478 37 -767 65 -1755
170 -1003 107 -1576 161 -1955 185 -49 3 -112 7 -140 10 -97 9 -584 32 -775
36 -246 7 -902 4 -1170 -3 -1535 -45 -3163 -307 -4334 -699 -604 -202 -1063
-421 -1536 -733 -214 -141 -287 -207 -330 -297 l-30 -63 26 -27 c57 -60 197
-92 354 -82 113 7 328 39 553 83 111 22 258 48 327 59 269 43 820 100 1175
121 99 6 207 13 239 15 143 10 590 20 931 20 357 0 939 -12 980 -20 11 -2 88
-6 170 -10 623 -24 1668 -128 2460 -246 794 -118 1291 -213 2730 -523 1661
-358 2400 -481 3395 -566 69 -6 148 -12 175 -15 111 -10 468 -35 585 -40 69
-3 146 -8 172 -10 224 -19 1483 -28 1905 -12 1124 40 2186 188 3033 423 537
149 893 287 1140 439 103 64 520 375 690 514 358 294 692 623 951 941 537 657
907 1421 1070 2209 61 296 85 568 83 941 -7 1173 -363 2306 -1132 3595 -344
576 -690 1061 -1087 1525 -202 236 -336 378 -735 779 -387 389 -504 541 -766
991 -135 231 -163 286 -269 515 -342 746 -724 1372 -1289 2110 -158 207 -381
485 -530 660 -127 150 -142 166 -381 431 -5 6 -62 65 -125 130 -64 66 -183
193 -265 283 -81 90 -183 193 -224 228 -335 286 -1273 907 -1881 1245 -1662
924 -3358 1446 -5090 1568 -80 5 -176 12 -215 15 -98 7 -969 18 -975 12z"/>
<path d="M1470 25535 c-139 -37 -279 -86 -383 -133 -66 -30 -230 -132 -223
-139 2 -2 41 17 87 41 94 49 289 127 514 206 210 73 211 80 5 25z"/>
<path d="M2200 24785 c-105 -56 -209 -132 -241 -176 -22 -32 -22 -33 -2 -19
11 8 90 62 174 119 85 57 158 108 164 112 21 20 -14 6 -95 -36z"/>
<path d="M1015 24637 c-121 -62 -248 -132 -283 -155 -58 -40 -215 -182 -166
-151 12 8 73 48 135 91 63 42 191 119 286 172 338 188 351 208 28 43z"/>
</g>
</svg>
