<?xml version="1.0" standalone="no"?>
<!DOCTYPE svg PUBLIC "-//W3C//DTD SVG 20010904//EN"
 "http://www.w3.org/TR/2001/REC-SVG-20010904/DTD/svg10.dtd">
<svg version="1.0" xmlns="http://www.w3.org/2000/svg"
 width="1200.000000pt" height="1200.000000pt" viewBox="0 0 1200.000000 1200.000000"
 preserveAspectRatio="xMidYMid meet">
<metadata>
Created by potrace 1.11, written by Peter Selinger 2001-2013
</metadata>
<g transform="translate(0.000000,1200.000000) scale(0.100000,-0.100000)"
fill="#000000" stroke="none">
<path d="M10437 10523 c11 -10 67 -49 124 -88 l102 -70 -109 -33 c-563 -173
-1091 -455 -1358 -727 -158 -161 -269 -374 -301 -575 -3 -19 -7 -46 -10 -60
-2 -14 -7 -44 -10 -67 -3 -24 -7 -60 -10 -80 -3 -21 -7 -56 -10 -78 -8 -64
-15 -93 -51 -209 -29 -94 -82 -327 -98 -436 -3 -19 -10 -60 -16 -90 -6 -30
-13 -71 -16 -90 -3 -19 -7 -42 -9 -50 -2 -8 -7 -31 -10 -50 -13 -78 -58 -270
-81 -341 -24 -78 -37 -96 -64 -96 -31 -1 -377 -15 -430 -18 -30 -2 -111 -6
-180 -10 -69 -3 -145 -8 -170 -10 -25 -2 -85 -6 -135 -10 -49 -3 -110 -8 -135
-10 -25 -3 -74 -7 -110 -10 -36 -3 -76 -7 -90 -10 -14 -2 -54 -7 -90 -11 -112
-11 -126 -13 -325 -45 -71 -11 -161 -27 -200 -35 -38 -9 -81 -18 -95 -20 -14
-3 -61 -14 -105 -25 -44 -11 -90 -22 -102 -25 -12 -2 -80 -22 -151 -44 -409
-125 -755 -297 -1067 -529 -55 -41 -105 -79 -111 -85 -6 -6 -32 -28 -57 -49
-130 -107 -427 -404 -567 -567 -148 -171 -319 -408 -419 -580 -46 -81 -151
-297 -151 -312 0 -8 -4 -18 -9 -23 -8 -9 -68 -171 -75 -205 -2 -8 -11 -40 -20
-70 -8 -30 -17 -66 -20 -80 -3 -14 -9 -48 -15 -77 -6 -29 -13 -74 -17 -100 -3
-26 -8 -50 -9 -53 -8 -13 -19 -228 -19 -350 1 -116 9 -274 19 -360 2 -14 6
-54 10 -90 4 -36 9 -74 11 -85 3 -11 7 -48 10 -81 l6 -62 -58 -27 c-62 -29
-239 -68 -364 -80 -41 -4 -83 -9 -92 -11 -94 -17 -665 -25 -813 -11 -134 13
-302 41 -540 88 -55 11 -111 23 -125 25 -14 3 -43 10 -65 16 -22 5 -51 12 -64
14 -43 8 -293 74 -338 89 -51 17 -141 31 -263 40 -47 4 -102 8 -122 10 -20 2
-110 7 -200 10 -222 9 -275 12 -328 21 -80 12 -130 9 -130 -9 0 -31 49 -56
165 -86 258 -68 498 -149 920 -311 91 -35 306 -103 365 -115 8 -2 69 -17 135
-34 66 -16 131 -32 145 -35 126 -25 688 -155 850 -196 113 -29 210 -53 215
-54 232 -57 661 -175 825 -228 256 -82 270 -90 455 -264 189 -177 178 -172
524 -239 158 -31 237 -64 257 -110 7 -16 25 -70 41 -119 46 -152 108 -225 208
-245 102 -21 123 -23 265 -26 214 -6 326 17 431 88 63 41 80 74 73 138 -7 77
-5 168 4 186 12 21 299 187 481 278 127 63 102 61 306 27 61 -10 124 -17 140
-16 68 3 123 16 143 34 36 34 52 128 36 209 -10 47 -49 79 -168 140 -127 64
-151 91 -150 166 1 28 11 78 22 113 12 34 22 72 22 85 1 16 25 40 98 92 76 54
439 334 522 402 225 184 478 339 599 367 204 48 536 -54 949 -291 279 -161
479 -330 595 -504 60 -91 76 -104 247 -204 231 -136 340 -242 469 -455 39 -64
118 -142 162 -160 40 -17 56 -1 64 65 4 28 10 54 14 58 8 8 68 -36 184 -132
61 -51 161 -91 225 -91 26 0 35 5 43 27 10 27 5 136 -8 155 -3 6 13 -1 36 -14
34 -19 43 -20 50 -9 23 36 -40 160 -209 411 -156 234 -148 216 -105 234 19 8
35 19 35 25 0 18 -91 89 -315 246 -124 87 -243 174 -265 192 -40 35 -51 65
-65 188 -4 28 -8 60 -10 72 -6 39 -18 286 -18 368 1 160 1 158 28 79 29 -87
65 -153 166 -305 94 -142 116 -181 130 -234 9 -32 38 -67 142 -170 150 -147
208 -197 224 -187 5 4 15 17 22 30 6 12 17 22 23 22 16 0 75 -64 157 -167 68
-87 144 -163 163 -163 12 0 38 65 41 100 3 35 22 27 62 -27 99 -133 134 -135
148 -8 3 28 6 51 6 53 1 1 8 2 16 2 8 0 26 -20 40 -44 40 -69 53 -76 80 -44
44 51 49 208 12 336 -14 45 -22 82 -18 82 3 0 19 -7 35 -15 90 -47 67 61 -48
224 -105 149 -125 163 -356 251 -212 82 -356 181 -378 261 -10 35 -8 276 2
364 4 28 9 73 12 100 3 28 9 79 14 115 5 36 12 92 15 125 26 259 44 329 160
600 66 155 119 320 149 460 26 127 29 143 45 245 10 63 13 82 26 185 3 28 8
57 10 65 9 34 20 169 18 225 -1 33 -4 314 -6 625 -3 473 -6 577 -20 640 -9 42
-19 98 -22 125 -4 28 -18 97 -31 154 -21 89 -41 143 -104 286 -21 46 -95 294
-105 350 -17 97 -17 116 1 143 9 15 80 89 156 165 l139 137 -5 -62 c-7 -67
-12 -136 -21 -288 -3 -52 -8 -108 -11 -125 -3 -21 -1 -25 5 -15 5 8 12 40 16
70 4 30 9 62 10 71 2 9 6 38 10 65 3 27 7 58 9 69 4 19 18 118 21 140 10 88
19 135 23 130 5 -5 9 -145 11 -379 2 -220 7 -182 27 179 4 61 8 126 9 145 2
19 4 54 4 78 1 23 5 42 10 42 6 0 10 -8 9 -17 -1 -24 12 -144 17 -163 3 -8 7
-46 11 -83 6 -74 11 -107 17 -114 2 -2 2 97 0 221 -3 150 -1 226 6 230 6 4 13
-3 16 -16 6 -28 35 -199 42 -248 11 -76 14 -37 7 105 -4 83 -8 164 -9 180 -1
17 5 38 13 48 17 19 32 22 32 7 0 -5 17 -38 38 -72 21 -35 41 -72 45 -82 4
-10 10 -17 12 -14 3 2 -13 54 -35 114 -22 60 -40 114 -40 119 1 20 31 -30 41
-67 12 -45 23 -49 25 -10 4 70 16 197 19 200 2 2 15 -19 29 -47 27 -52 42 -69
27 -28 -5 12 -11 40 -14 62 -3 22 -9 48 -12 58 -9 22 11 22 24 0 13 -23 14 -7
1 37 -12 42 -3 97 13 81 20 -20 26 -12 15 20 -6 16 -8 32 -5 35 3 3 -1 27 -9
52 -7 26 -14 56 -14 68 0 23 -69 127 -102 154 -17 13 -22 31 -25 85 -4 87 -20
105 -116 133 -94 26 -128 31 -272 37 -66 3 -131 7 -145 10 -14 2 -43 7 -65 10
-113 15 -120 17 -158 59 -38 39 -43 35 -22 -16 6 -15 1 -18 -32 -18 -31 0 -47
7 -77 36 -38 36 -42 32 -21 -18 13 -32 -23 -20 -183 63 -87 44 -147 72 -135
62z m513 -229 c47 -8 119 -22 160 -29 41 -8 101 -14 134 -15 l58 0 -4 -115
c-5 -107 -4 -116 17 -135 27 -26 36 -25 93 5 26 14 53 25 61 25 8 0 20 8 28
18 13 16 14 15 10 -5 -10 -45 64 -66 108 -31 25 20 26 20 40 2 26 -34 49 -128
49 -200 0 -60 -5 -82 -32 -136 -48 -97 -163 -215 -367 -373 -133 -103 -222
-181 -314 -274 l-104 -105 6 -80 c7 -87 24 -147 82 -296 39 -98 43 -109 95
-275 29 -93 76 -264 86 -310 2 -11 6 -29 9 -40 51 -235 60 -332 60 -630 0
-235 -6 -354 -25 -465 -5 -30 -12 -73 -15 -95 -6 -46 -11 -76 -29 -170 -15
-76 -78 -310 -113 -420 -156 -485 -404 -957 -751 -1430 -78 -106 -100 -154
-116 -250 -13 -76 -16 -95 -26 -170 -11 -88 -16 -137 -25 -265 -3 -47 -7 -105
-10 -130 -2 -25 -7 -99 -10 -165 -4 -66 -8 -140 -10 -165 -2 -25 -6 -83 -10
-130 -7 -100 -18 -133 -51 -155 -33 -21 -129 -41 -189 -39 -143 6 -173 18
-555 231 -305 170 -312 174 -447 242 -127 64 -227 105 -278 114 -17 3 -43 9
-60 12 -255 50 -467 70 -715 69 -201 0 -222 -4 -457 -78 -462 -147 -837 -401
-1083 -736 -30 -41 -60 -83 -66 -95 -307 -556 -443 -749 -568 -809 -90 -44
-201 -61 -396 -61 -144 1 -195 5 -285 24 -146 30 -297 81 -424 141 -98 47
-250 134 -261 150 -3 3 -12 11 -21 16 -49 27 -116 97 -156 161 -141 227 -285
688 -317 1018 -3 28 -8 82 -12 120 -14 140 -8 459 12 585 11 76 56 249 89 346
72 213 177 424 350 707 50 82 183 265 252 349 445 535 846 852 1364 1076 96
42 341 131 407 148 204 53 366 93 393 98 19 3 79 14 134 25 55 11 125 22 155
26 30 3 62 8 70 10 24 6 139 20 330 40 190 20 348 29 690 40 85 3 224 8 308
11 l152 5 1 -133 c0 -73 2 -153 4 -177 7 -96 16 -189 20 -212 8 -46 26 -154
30 -174 31 -168 106 -389 192 -560 49 -98 169 -283 230 -355 44 -52 167 -176
202 -205 23 -19 22 -16 -7 35 -113 193 -221 454 -290 700 -30 107 -77 300 -86
355 -3 17 -14 85 -25 151 -11 67 -23 144 -26 170 -3 27 -8 65 -10 84 -10 80
-19 231 -20 315 0 94 2 112 35 291 11 60 23 125 26 144 5 34 50 275 58 315 5
25 36 192 42 225 3 14 7 33 10 42 3 10 7 30 10 45 8 47 33 137 50 184 34 94
74 246 79 299 2 30 7 95 11 144 3 50 8 99 10 110 2 12 6 35 9 51 5 26 16 79
20 95 1 3 5 19 9 35 13 52 48 138 80 195 88 159 386 371 836 596 170 85 440
204 463 204 7 0 17 4 23 9 10 9 221 80 264 88 13 2 27 6 29 9 10 9 142 3 221
-12z m757 -856 c-3 -7 -5 -2 -5 12 0 14 2 19 5 13 2 -7 2 -19 0 -25z"/>
<path d="M10532 9990 c-24 -11 -46 -28 -49 -39 -2 -10 -15 -24 -29 -31 l-23
-13 31 -36 c41 -47 63 -62 103 -71 43 -10 76 10 135 79 35 42 40 55 29 62 -8
5 -19 9 -25 9 -6 0 -19 9 -28 19 -10 11 -30 22 -44 26 -15 3 -34 8 -42 10 -8
3 -35 -4 -58 -15z"/>
<path d="M9460 9637 c-76 -51 -174 -138 -191 -168 -20 -38 -19 -76 4 -109 29
-44 119 -105 185 -125 51 -16 53 -16 95 5 65 33 105 78 148 162 21 43 39 81
39 85 0 5 -24 8 -53 8 -41 0 -63 7 -105 33 -59 36 -85 43 -124 31 -16 -4 -28
-7 -28 -5 0 1 29 22 65 45 36 24 65 46 65 50 0 3 -6 13 -13 22 -11 14 -20 11
-87 -34z"/>
<path d="M11312 8600 c0 -14 2 -19 5 -12 2 6 2 18 0 25 -3 6 -5 1 -5 -13z"/>
</g>
</svg>
